<svg id="Layer_1" data-name="Layer 1" xmlns="http://www.w3.org/2000/svg" viewBox="0 0 412.13 90.14"><defs><style>.cls-1{fill:#3d3d3d;}</style></defs><polygon class="cls-1" points="206.07 14.24 336.24 14.24 321.99 0 199.36 0 167.21 32.14 184.26 49.19 157.85 49.19 142.13 64.91 211.64 64.91 216.99 59.56 188.87 31.44 206.07 14.24"/><polygon class="cls-1" points="58.15 48.43 44.76 61.82 67.58 61.82 70.67 64.91 109.73 64.91 120.85 53.78 120.85 48.43 58.15 48.43"/><polygon class="cls-1" points="92.66 0 75.06 0 0 75.06 0 90.14 11.79 90.14 57.42 44.5 64.95 44.5 85.39 24.07 87.59 26.27 78.41 35.45 78.41 44.5 120.85 44.5 120.85 28.2 92.66 0"/><polygon class="cls-1" points="363.09 41.1 352.68 41.1 338.77 55.01 355.12 55.01 390.24 90.14 412.13 90.14 363.09 41.1"/><polygon class="cls-1" points="339.38 17.37 306.48 50.25 306.48 64.94 316.35 64.94 325.04 56.25 331.57 56.25 351.02 36.8 358.81 36.8 339.38 17.37"/><polygon class="cls-1" points="306.29 17.37 284.2 39.45 281.35 36.6 267.25 50.69 267.25 64.91 287 64.91 318.89 33.02 318.89 17.37 306.29 17.37"/><polygon class="cls-1" points="267.68 17.37 231.08 53.98 231.08 64.91 231.08 64.91 248.4 64.91 284.93 28.38 284.93 17.37 267.68 17.37"/><polygon class="cls-1" points="125.18 0 125.18 21.44 146.62 0 125.18 0"/><polygon class="cls-1" points="152.91 0 125.17 27.74 125.17 55.29 115.52 64.94 135.29 64.94 146.24 53.99 146.24 31.39 150.5 31.39 181.88 0 152.91 0"/><path class="cls-1" d="M200.7,31.63h-9.29l14.31-14.26H215Zm-4.64-1.93h3.84l10.46-10.41h-3.85Z"/><path class="cls-1" d="M213,31.63h-9.29l14.31-14.26h9.29ZM208.4,29.7h3.85L222.7,19.29h-3.85Z"/><path class="cls-1" d="M225.38,31.63h-9.29L230.4,17.37h9.29Zm-4.64-1.93h3.85L235,19.29h-3.85Z"/><path class="cls-1" d="M29.9,90.14h-14l23-23h14Zm-9.2-2h8.39l19.09-19H39.79Z"/><path class="cls-1" d="M47.78,90.14h-14l23-23h14Zm-9.2-2H47l19.09-19H57.67Z"/><path class="cls-1" d="M65.66,90.14h-14l23-23h14Zm-9.2-2h8.39l19.09-19H75.55Z"/><path class="cls-1" d="M237.72,31.63h-9.29l14.31-14.26H252Zm-4.64-1.93h3.85l10.45-10.41h-3.84Z"/><path class="cls-1" d="M250.06,31.63h-9.28l14.3-14.26h9.29Zm-4.64-1.93h3.85l10.45-10.41h-3.84Z"/><path class="cls-1" d="M231.94,72.54a.88.88,0,0,1,.91-.91h4.54a3.16,3.16,0,0,1,3.17,3.17v.9a3.2,3.2,0,0,1-3.17,3.19h-3.64v4.52a.91.91,0,1,1-1.81,0Zm1.81,4.54h3.64a1.31,1.31,0,0,0,1-.4,1.34,1.34,0,0,0,.4-1v-.9a1.35,1.35,0,0,0-.4-1,1.31,1.31,0,0,0-1-.4h-3.64Z"/><path class="cls-1" d="M242.29,72.54a.88.88,0,0,1,.91-.91h4.54a3.16,3.16,0,0,1,3.16,3.17v.9a3.21,3.21,0,0,1-2.44,3.09L250.27,81a2.15,2.15,0,0,1,.62,1.85v.58a.91.91,0,1,1-1.81,0v-1l-2.89-3.52H244.1v4.52a.91.91,0,1,1-1.81,0Zm1.81,4.54h3.64a1.31,1.31,0,0,0,1-.4,1.33,1.33,0,0,0,.39-1v-.9a1.34,1.34,0,0,0-.39-1,1.31,1.31,0,0,0-1-.4H244.1Z"/><path class="cls-1" d="M254.45,81.13a1.3,1.3,0,0,0,.4,1,1.33,1.33,0,0,0,1,.39h2.26a1.31,1.31,0,0,0,1-.39,1.41,1.41,0,0,0-.12-2,5.25,5.25,0,0,0-1.26-.8c-.5-.24-1-.49-1.63-.72a6.55,6.55,0,0,1-2.9-2,2.69,2.69,0,0,1-.51-1.69,3.2,3.2,0,0,1,3.17-3.19h2.28a3.16,3.16,0,0,1,3.16,3.17.91.91,0,0,1-1.81,0,1.31,1.31,0,0,0-.4-1,1.27,1.27,0,0,0-1-.4h-2.28a1.37,1.37,0,0,0-1.36,1.38,1.37,1.37,0,0,0,.51,1.07,5.56,5.56,0,0,0,1.26.79c.5.24,1,.49,1.63.73a6.61,6.61,0,0,1,2.9,2,2.83,2.83,0,0,1,.5,1.7,3.18,3.18,0,0,1-3.16,3.18h-2.26a3.21,3.21,0,0,1-3.19-3.18A.91.91,0,0,1,254.45,81.13Z"/><path class="cls-1" d="M263,72.5a.79.79,0,0,1,.69-.86h.15a1,1,0,0,1,.43.09,1,1,0,0,1,.48.42l5.05,8.14V72.54a.91.91,0,1,1,1.81,0V83.45a.81.81,0,0,1-.7.86h-.13a1,1,0,0,1-.43-.1,1.16,1.16,0,0,1-.47-.4l-5.07-8.13v7.75a.91.91,0,0,1-1.81,0Z"/><path class="cls-1" d="M273.33,78.47a2.34,2.34,0,0,1,.12-1.1l2.13-5.07a.84.84,0,0,1,.92-.67h2.28a.84.84,0,0,1,.92.67l2.14,5.07a2.68,2.68,0,0,1,.11,1.1v4.94a.91.91,0,1,1-1.81,0V81.6h-5v1.81a.91.91,0,1,1-1.81,0Zm1.81,1.32h5V78l-2-4.52H277.1l-2,4.52Z"/><path class="cls-1" d="M295.84,81.13a1.3,1.3,0,0,0,.4,1,1.33,1.33,0,0,0,1,.39h2.26a1.31,1.31,0,0,0,1-.39,1.41,1.41,0,0,0-.12-2,5.25,5.25,0,0,0-1.26-.8c-.5-.24-1-.49-1.63-.72a6.55,6.55,0,0,1-2.9-2,2.76,2.76,0,0,1-.51-1.69,3.2,3.2,0,0,1,3.17-3.19h2.28a3.16,3.16,0,0,1,3.16,3.17.91.91,0,0,1-1.81,0,1.31,1.31,0,0,0-.4-1,1.27,1.27,0,0,0-.95-.4H297.2a1.38,1.38,0,0,0-1.36,1.38,1.37,1.37,0,0,0,.51,1.07,5.56,5.56,0,0,0,1.26.79c.5.24,1,.49,1.63.73a6.55,6.55,0,0,1,2.9,2,2.83,2.83,0,0,1,.5,1.7,3.18,3.18,0,0,1-3.16,3.18h-2.26A3.22,3.22,0,0,1,294,81.13.91.91,0,0,1,295.84,81.13Z"/><path class="cls-1" d="M305.29,71.63h6.8a.91.91,0,0,1,0,1.81h-2.5v10a.91.91,0,0,1-1.81,0v-10h-2.49a.84.84,0,0,1-.68-.28A.91.91,0,0,1,305.29,71.63Z"/><path class="cls-1" d="M314.72,72.54a.91.91,0,0,1,1.81,0V81.6a.84.84,0,0,0,.28.63.88.88,0,0,0,.63.27h3.19a.93.93,0,0,0,.9-.9V72.54a.91.91,0,0,1,1.81,0V81.6a2.71,2.71,0,0,1-2.71,2.71h-3.19a2.71,2.71,0,0,1-2.72-2.71Z"/><path class="cls-1" d="M325.07,72.54a.92.92,0,0,1,.91-.91h5a2.71,2.71,0,0,1,2.71,2.72v7.23A2.72,2.72,0,0,1,331,84.31h-5a.92.92,0,0,1-.91-.9Zm1.81,10H331a.9.9,0,0,0,.9-.92V74.35a.9.9,0,0,0-.9-.91h-4.09Z"/><path class="cls-1" d="M336.33,82.52h2.49V73.44h-2.49a.91.91,0,1,1,0-1.81h6.8a.91.91,0,0,1,0,1.81h-2.5v9.08h2.5a.91.91,0,0,1,0,1.81h-6.8a.81.81,0,0,1-.68-.28A.92.92,0,0,1,336.33,82.52Z"/><path class="cls-1" d="M345.77,74.35a2.72,2.72,0,0,1,2.72-2.72h3.16a2.72,2.72,0,0,1,2.71,2.72v7.23a2.73,2.73,0,0,1-2.71,2.73h-3.16a2.73,2.73,0,0,1-2.72-2.73Zm1.81,7.23a.92.92,0,0,0,.91.92h3.16a.91.91,0,0,0,.9-.92V74.35a.91.91,0,0,0-.9-.91h-3.16a.92.92,0,0,0-.91.91Z"/></svg>